<mxfile host="app.diagrams.net" modified="2021-08-19T20:14:10.557Z" agent="5.0 (X11; Linux x86_64) AppleWebKit/537.36 (KHTML, like Gecko) Chrome/92.0.4515.131 Safari/537.36" etag="CBi0bkl8V-ekjKlBqfoS" version="14.6.13" type="github">
  <diagram id="VtxqBn45QVyCYPJ42DAz" name="Page-1">
    <mxGraphModel dx="1095" dy="948" grid="1" gridSize="10" guides="1" tooltips="1" connect="1" arrows="1" fold="1" page="1" pageScale="1" pageWidth="827" pageHeight="1169" math="0" shadow="0">
      <root>
        <mxCell id="0" />
        <mxCell id="1" parent="0" />
        <mxCell id="zdSGInVf1k2tUkKo8DN2-6" style="edgeStyle=orthogonalEdgeStyle;rounded=0;orthogonalLoop=1;jettySize=auto;html=1;exitX=1;exitY=0;exitDx=0;exitDy=0;entryX=0;entryY=0;entryDx=0;entryDy=0;" edge="1" parent="1" source="zdSGInVf1k2tUkKo8DN2-1" target="zdSGInVf1k2tUkKo8DN2-2">
          <mxGeometry relative="1" as="geometry">
            <Array as="points">
              <mxPoint x="440" y="200" />
              <mxPoint x="440" y="200" />
            </Array>
          </mxGeometry>
        </mxCell>
        <mxCell id="zdSGInVf1k2tUkKo8DN2-10" style="edgeStyle=orthogonalEdgeStyle;rounded=0;orthogonalLoop=1;jettySize=auto;html=1;exitX=1;exitY=0.5;exitDx=0;exitDy=0;entryX=0;entryY=0.5;entryDx=0;entryDy=0;" edge="1" parent="1" source="zdSGInVf1k2tUkKo8DN2-1" target="zdSGInVf1k2tUkKo8DN2-2">
          <mxGeometry relative="1" as="geometry">
            <Array as="points">
              <mxPoint x="360" y="380" />
            </Array>
          </mxGeometry>
        </mxCell>
        <mxCell id="zdSGInVf1k2tUkKo8DN2-1" value="Coordinator" style="rounded=0;whiteSpace=wrap;html=1;" vertex="1" parent="1">
          <mxGeometry x="240" y="190" width="120" height="370" as="geometry" />
        </mxCell>
        <mxCell id="zdSGInVf1k2tUkKo8DN2-7" style="edgeStyle=orthogonalEdgeStyle;rounded=0;orthogonalLoop=1;jettySize=auto;html=1;exitX=0;exitY=0.25;exitDx=0;exitDy=0;" edge="1" parent="1" source="zdSGInVf1k2tUkKo8DN2-2">
          <mxGeometry relative="1" as="geometry">
            <mxPoint x="360" y="290" as="targetPoint" />
          </mxGeometry>
        </mxCell>
        <mxCell id="zdSGInVf1k2tUkKo8DN2-11" style="edgeStyle=orthogonalEdgeStyle;rounded=0;orthogonalLoop=1;jettySize=auto;html=1;exitX=0;exitY=0.75;exitDx=0;exitDy=0;entryX=1;entryY=0.75;entryDx=0;entryDy=0;" edge="1" parent="1" source="zdSGInVf1k2tUkKo8DN2-2" target="zdSGInVf1k2tUkKo8DN2-1">
          <mxGeometry relative="1" as="geometry">
            <Array as="points">
              <mxPoint x="520" y="468" />
              <mxPoint x="440" y="468" />
            </Array>
          </mxGeometry>
        </mxCell>
        <mxCell id="zdSGInVf1k2tUkKo8DN2-16" value="" style="endArrow=classic;html=1;entryX=0;entryY=0;entryDx=0;entryDy=0;exitX=1;exitY=0;exitDx=0;exitDy=0;" edge="1" parent="1" source="zdSGInVf1k2tUkKo8DN2-1" target="zdSGInVf1k2tUkKo8DN2-3">
          <mxGeometry width="50" height="50" relative="1" as="geometry">
            <mxPoint x="362" y="190" as="sourcePoint" />
            <mxPoint x="440" y="490" as="targetPoint" />
          </mxGeometry>
        </mxCell>
        <mxCell id="zdSGInVf1k2tUkKo8DN2-20" style="edgeStyle=orthogonalEdgeStyle;rounded=0;orthogonalLoop=1;jettySize=auto;html=1;exitX=1;exitY=0.5;exitDx=0;exitDy=0;entryX=0;entryY=0.5;entryDx=0;entryDy=0;" edge="1" parent="1" target="zdSGInVf1k2tUkKo8DN2-3">
          <mxGeometry relative="1" as="geometry">
            <mxPoint x="360" y="360" as="sourcePoint" />
            <mxPoint x="520" y="365" as="targetPoint" />
            <Array as="points">
              <mxPoint x="360" y="365" />
              <mxPoint x="530" y="365" />
            </Array>
          </mxGeometry>
        </mxCell>
        <mxCell id="zdSGInVf1k2tUkKo8DN2-21" style="edgeStyle=orthogonalEdgeStyle;rounded=0;orthogonalLoop=1;jettySize=auto;html=1;exitX=0;exitY=0.75;exitDx=0;exitDy=0;entryX=1;entryY=0.75;entryDx=0;entryDy=0;" edge="1" parent="1">
          <mxGeometry relative="1" as="geometry">
            <mxPoint x="520" y="452.5" as="sourcePoint" />
            <mxPoint x="360" y="450" as="targetPoint" />
            <Array as="points">
              <mxPoint x="520" y="450.5" />
              <mxPoint x="440" y="450.5" />
            </Array>
          </mxGeometry>
        </mxCell>
        <mxCell id="zdSGInVf1k2tUkKo8DN2-22" style="edgeStyle=orthogonalEdgeStyle;rounded=0;orthogonalLoop=1;jettySize=auto;html=1;exitX=0;exitY=0.25;exitDx=0;exitDy=0;" edge="1" parent="1">
          <mxGeometry relative="1" as="geometry">
            <mxPoint x="520" y="270" as="sourcePoint" />
            <mxPoint x="360" y="270" as="targetPoint" />
          </mxGeometry>
        </mxCell>
        <mxCell id="zdSGInVf1k2tUkKo8DN2-23" value="Prepare" style="text;html=1;align=center;verticalAlign=middle;resizable=0;points=[];autosize=1;strokeColor=none;" vertex="1" parent="1">
          <mxGeometry x="410" y="170" width="60" height="20" as="geometry" />
        </mxCell>
        <mxCell id="zdSGInVf1k2tUkKo8DN2-24" value="Vote" style="text;html=1;align=center;verticalAlign=middle;resizable=0;points=[];autosize=1;strokeColor=none;" vertex="1" parent="1">
          <mxGeometry x="420" y="250" width="40" height="20" as="geometry" />
        </mxCell>
        <mxCell id="zdSGInVf1k2tUkKo8DN2-25" value="Decision" style="text;html=1;align=center;verticalAlign=middle;resizable=0;points=[];autosize=1;strokeColor=none;" vertex="1" parent="1">
          <mxGeometry x="410" y="340" width="60" height="20" as="geometry" />
        </mxCell>
        <mxCell id="zdSGInVf1k2tUkKo8DN2-26" value="Ack" style="text;html=1;align=center;verticalAlign=middle;resizable=0;points=[];autosize=1;strokeColor=none;" vertex="1" parent="1">
          <mxGeometry x="420" y="430" width="40" height="20" as="geometry" />
        </mxCell>
        <mxCell id="zdSGInVf1k2tUkKo8DN2-3" value="Worker" style="rounded=0;whiteSpace=wrap;html=1;" vertex="1" parent="1">
          <mxGeometry x="530" y="190" width="120" height="360" as="geometry" />
        </mxCell>
        <mxCell id="zdSGInVf1k2tUkKo8DN2-2" value="Worker" style="rounded=0;whiteSpace=wrap;html=1;" vertex="1" parent="1">
          <mxGeometry x="520" y="200" width="120" height="360" as="geometry" />
        </mxCell>
      </root>
    </mxGraphModel>
  </diagram>
</mxfile>
